HIERARCHY
ROOT hip
{
  OFFSET -132.976 87.319 24.102
  CHANNELS 6 Xposition Yposition Zposition Zrotation Xrotation Yrotation
  JOINT abdomen
  {
    OFFSET 0 20.6881 -0.73152
    CHANNELS 3 Zrotation Xrotation Yrotation
    JOINT chest
    {
      OFFSET 0 11.7043 -0.48768
      CHANNELS 3 Zrotation Xrotation Yrotation
      JOINT neck
      {
        OFFSET 0 22.1894 -2.19456
        CHANNELS 3 Zrotation Xrotation Yrotation
        JOINT head
        {
          OFFSET -0.24384 7.07133 1.2192
          CHANNELS 3 Zrotation Xrotation Yrotation
          JOINT leftEye
          {
            OFFSET 4.14528 8.04674 8.04672
            CHANNELS 3 Zrotation Xrotation Yrotation
            End Site
            {
              OFFSET 1 0 0
            }
          }
          JOINT rightEye
          {
            OFFSET -3.6576 8.04674 8.04672
            CHANNELS 3 Zrotation Xrotation Yrotation
            End Site
            {
              OFFSET 1 0 0
            }
          }
        }
      }
      JOINT rCollar
      {
        OFFSET -2.68224 19.2634 -4.8768
        CHANNELS 3 Zrotation Xrotation Yrotation
        JOINT rShldr
        {
          OFFSET -8.77824 -1.95073 1.46304
          CHANNELS 3 Zrotation Xrotation Yrotation
          JOINT rForeArm
          {
            OFFSET -28.1742 -1.7115 0.48768
            CHANNELS 3 Zrotation Xrotation Yrotation
            JOINT rHand
            {
              OFFSET -22.5879 0.773209 7.07136
              CHANNELS 3 Zrotation Xrotation Yrotation
              JOINT rThumb1
              {
                OFFSET -1.2192 -0.487915 3.41376
                CHANNELS 3 Zrotation Xrotation Yrotation
                JOINT rThumb2
                {
                  OFFSET -3.37035 -0.52449 3.41376
                  CHANNELS 3 Zrotation Xrotation Yrotation
                  End Site
                  {
                    OFFSET -1.78271 -1.18214 1.43049
                  }
                }
              }
              JOINT rIndex1
              {
                OFFSET -7.75947 0.938293 5.60832
                CHANNELS 3 Zrotation Xrotation Yrotation
                JOINT rIndex2
                {
                  OFFSET -2.54057 -0.884171 1.56538
                  CHANNELS 3 Zrotation Xrotation Yrotation
                  End Site
                  {
                    OFFSET -1.62519 -0.234802 1.16502
                  }
                }
              }
              JOINT rMid1
              {
                OFFSET -8.24714 1.18213 3.41376
                CHANNELS 3 Zrotation Xrotation Yrotation
                JOINT rMid2
                {
                  OFFSET -3.10165 -0.590103 1.0647
                  CHANNELS 3 Zrotation Xrotation Yrotation
                  End Site
                  {
                    OFFSET -2.48547 -0.328903 0.83742
                  }
                }
              }
              JOINT rRing1
              {
                OFFSET -8.82822 0.546677 1.51678
                CHANNELS 3 Zrotation Xrotation Yrotation
                JOINT rRing2
                {
                  OFFSET -2.60934 -0.819778 -0.0198488
                  CHANNELS 3 Zrotation Xrotation Yrotation
                  End Site
                  {
                    OFFSET -2.33842 -0.294052 0.168128
                  }
                }
              }
              JOINT rPinky1
              {
                OFFSET -8.27202 -0.0477905 -0.4584
                CHANNELS 3 Zrotation Xrotation Yrotation
                JOINT rPinky2
                {
                  OFFSET -1.82734 -0.647385 -0.700984
                  CHANNELS 3 Zrotation Xrotation Yrotation
                  End Site
                  {
                    OFFSET -1.69225 -0.51767 -0.607171
                  }
                }
              }
            }
          }
        }
      }
      JOINT lCollar
      {
        OFFSET 2.68224 19.2634 -4.8768
        CHANNELS 3 Zrotation Xrotation Yrotation
        JOINT lShldr
        {
          OFFSET 8.77824 -1.95073 1.46304
          CHANNELS 3 Zrotation Xrotation Yrotation
          JOINT lForeArm
          {
            OFFSET 28.1742 -1.7115 0.48768
            CHANNELS 3 Zrotation Xrotation Yrotation
            JOINT lHand
            {
              OFFSET 22.5879 0.773209 7.07136
              CHANNELS 3 Zrotation Xrotation Yrotation
              JOINT lThumb1
              {
                OFFSET 1.2192 -0.487915 3.41376
                CHANNELS 3 Zrotation Xrotation Yrotation
                JOINT lThumb2
                {
                  OFFSET 3.37035 -0.52449 3.41376
                  CHANNELS 3 Zrotation Xrotation Yrotation
                  End Site
                  {
                    OFFSET 1.78271 -1.18214 1.43049
                  }
                }
              }
              JOINT lIndex1
              {
                OFFSET 7.75947 0.938293 5.60832
                CHANNELS 3 Zrotation Xrotation Yrotation
                JOINT lIndex2
                {
                  OFFSET 2.54057 -0.884171 1.56538
                  CHANNELS 3 Zrotation Xrotation Yrotation
                  End Site
                  {
                    OFFSET 1.62519 -0.234802 1.16502
                  }
                }
              }
              JOINT lMid1
              {
                OFFSET 8.24714 1.18213 3.41376
                CHANNELS 3 Zrotation Xrotation Yrotation
                JOINT lMid2
                {
                  OFFSET 3.10165 -0.590103 1.0647
                  CHANNELS 3 Zrotation Xrotation Yrotation
                  End Site
                  {
                    OFFSET 2.48547 -0.328903 0.83742
                  }
                }
              }
              JOINT lRing1
              {
                OFFSET 8.82822 0.546677 1.51678
                CHANNELS 3 Zrotation Xrotation Yrotation
                JOINT lRing2
                {
                  OFFSET 2.60934 -0.819778 -0.0198488
                  CHANNELS 3 Zrotation Xrotation Yrotation
                  End Site
                  {
                    OFFSET 2.33842 -0.294052 0.168128
                  }
                }
              }
              JOINT lPinky1
              {
                OFFSET 8.27202 -0.0477905 -0.4584
                CHANNELS 3 Zrotation Xrotation Yrotation
                JOINT lPinky2
                {
                  OFFSET 1.82734 -0.647385 -0.700984
                  CHANNELS 3 Zrotation Xrotation Yrotation
                  End Site
                  {
                    OFFSET 1.69225 -0.51767 -0.607171
                  }
                }
              }
            }
          }
        }
      }
    }
  }
  JOINT rButtock
  {
    OFFSET -8.77824 4.35084 1.2192
    CHANNELS 3 Zrotation Xrotation Yrotation
    JOINT rThigh
    {
      OFFSET 0 -1.70687 -2.19456
      CHANNELS 3 Zrotation Xrotation Yrotation
      JOINT rShin
      {
        OFFSET 0 -36.8199 0.73152
        CHANNELS 3 Zrotation Xrotation Yrotation
        JOINT rFoot
        {
          OFFSET 0.73152 -45.1104 -5.12064
          CHANNELS 3 Zrotation Xrotation Yrotation
          End Site
          {
            OFFSET -1.1221 -3.69964 12.103
          }
        }
      }
    }
  }
  JOINT lButtock
  {
    OFFSET 8.77824 4.35084 1.2192
    CHANNELS 3 Zrotation Xrotation Yrotation
    JOINT lThigh
    {
      OFFSET 0 -1.70687 -2.19456
      CHANNELS 3 Zrotation Xrotation Yrotation
      JOINT lShin
      {
        OFFSET 0 -36.8199 0.73152
        CHANNELS 3 Zrotation Xrotation Yrotation
        JOINT lFoot
        {
          OFFSET -0.73152 -45.1104 -5.12064
          CHANNELS 3 Zrotation Xrotation Yrotation
          End Site
          {
            OFFSET 1.1221 -3.69964 12.103
          }
        }
      }
    }
  }
}
MOTION
Frames:	4
Frame Time:	0.00833333
222.057 84.7658 35.9393 0.292817 -0.000579798 -0.00500382 -0.385197 -0.00168813 -0.0109958 -0.106234 -0.00256712 -0.0184049 9.09684e-015 -1.59028e-015 7.45442e-017 2.72863e-014 3.18055e-015 2.14315e-016 -0 0 0 -0 0 0 4.52121e-015 6.7944e-018 1.98785e-016 9.85955e-014 1.30452e-016 2.18663e-015 1.65056e-012 -4.87818e-013 -3.18055e-015 1.88783e-011 5.24344e-013 1.87653e-013 4.45314e-011 7.56218e-014 4.13472e-013 7.68987e-011 1.24042e-013 7.09264e-013 4.45365e-011 7.87187e-014 3.97569e-013 7.73091 5.47488 0.417314 4.45314e-011 7.55382e-014 4.13472e-013 2.90554 0.965183 0.102902 4.45358e-011 7.59357e-014 4.09496e-013 10.2786 0.731801 0.0259123 4.45252e-011 7.71284e-014 4.19833e-013 2.22167 -0.733487 -0.20892 4.52379e-015 6.60027e-018 -9.93923e-017 9.30916e-014 2.29845e-016 3.97569e-016 1.65006e-012 4.98353e-013 0 1.88731e-011 -4.71567e-013 2.06736e-013 4.45235e-011 5.48104e-014 4.13472e-013 7.68959e-011 8.90555e-014 7.14035e-013 4.45182e-011 5.60573e-014 4.32555e-013 -7.73091 5.47488 -0.417314 4.45241e-011 5.43676e-014 4.07111e-013 -2.90554 0.965183 -0.102902 4.45204e-011 5.48646e-014 4.15062e-013 -10.2786 0.731801 -0.0259123 4.45258e-011 5.4467e-014 4.0393e-013 -2.22167 -0.733487 0.20892 -2.03217e-016 0 -3.88251e-019 0.221649 -2.58356 -0.0280809 -0.00748957 -0.872631 -0.06514 -0.51311 3.45577 0.129347 2.03217e-016 0 3.88251e-019 -0.807776 -4.07084 0.0653913 0.00325576 1.82139 0.024432 0.517712 2.24911 -0.10518 
218.141 83.4998 29.099 -13.4497 -18.6599 27.2596 -0.500911 0.00214463 -0.0205866 -0.139399 0.00391925 -0.0241378 6.42246e-014 4.375 1.70755e-014 -2.84405e-011 -8.75 -8.70645e-011 -0 0 0 -0 0 0 4.36034e-014 8.79315e-014 1.19329e-014 -2.1875 1.29107e-009 7.13231e-011 -5.58822e-012 2.22189e-011 4.84785e-014 -2.04669e-011 1.23322e-010 -4.449e-012 -5.78775e-011 3.166e-010 -9.60403e-012 -1.00454e-010 5.47061e-010 -1.66262e-011 -5.78725e-011 3.16599e-010 -9.62292e-012 7.73091 5.47488 0.417314 -5.78781e-011 3.16596e-010 -9.606e-012 2.90554 0.965183 0.102902 -5.78709e-011 3.16596e-010 -9.61059e-012 10.2786 0.731801 0.0259123 -5.78824e-011 3.16601e-010 -9.60277e-012 2.22167 -0.733487 -0.20892 4.35794e-014 8.79285e-014 1.16631e-014 2.1875 1.29107e-009 -7.13212e-011 5.36143e-012 -1.97357e-010 2.98189e-012 1.93989e-011 -1.05889e-009 3.54099e-011 5.3695e-011 -2.72741e-009 8.33377e-011 9.28445e-011 -4.71105e-009 1.43915e-010 5.369e-011 -2.72741e-009 8.33545e-011 -7.73091 5.47488 -0.417314 5.36956e-011 -2.72741e-009 8.33323e-011 -2.90554 0.965183 -0.102902 5.3691e-011 -2.72741e-009 8.33399e-011 -10.2786 0.731801 -0.0259123 5.36978e-011 -2.72741e-009 8.33282e-011 -2.22167 -0.733487 0.20892 -2.03217e-016 0 -3.88251e-019 1.32249 -5.34681 1.06592 -0.0114505 3.15843 -0.00703667 -0.483035 3.72166 0.130238 2.03217e-016 0 3.88251e-019 1.82785 -6.44505 -1.45082 0.000592201 5.12956 -0.0265963 0.481405 2.35884 -0.102488 
218.145 83.5002 29.0671 -10.7909 -24.2011 60.9937 -0.623228 0.00619965 -0.0307209 -0.174457 0.0107816 -0.0301982 1.18373e-013 9 3.62331e-014 -8.88064e-011 -18 -1.8613e-010 -0 0 0 -0 0 0 8.51007e-014 2.02684e-013 2.50127e-014 -4.5 2.65591e-009 1.46719e-010 -1.57365e-011 4.72939e-011 -3.0593e-013 -7.70095e-011 2.58363e-010 -1.52205e-011 -2.04127e-010 6.64925e-010 -3.38463e-011 -3.53601e-010 1.14895e-009 -5.85406e-011 -2.04123e-010 6.64919e-010 -3.38685e-011 7.73091 5.47488 0.417314 -2.04129e-010 6.64916e-010 -3.38505e-011 2.90554 0.965183 0.102902 -2.04118e-010 6.64917e-010 -3.38558e-011 10.2786 0.731801 0.0259123 -2.04131e-010 6.64926e-010 -3.38508e-011 2.22167 -0.733487 -0.20892 8.50491e-014 2.02678e-013 2.47735e-014 4.5 2.65591e-009 -1.46718e-010 9.31331e-012 -4.08394e-010 6.62013e-012 6.37084e-012 -2.18377e-009 7.89779e-011 3.39387e-011 -5.62788e-009 1.85863e-010 5.88324e-011 -9.72106e-009 3.20975e-010 3.39338e-011 -5.62788e-009 1.85878e-010 -7.73091 5.47488 -0.417314 3.39392e-011 -5.62788e-009 1.85859e-010 -2.90554 0.965183 -0.102902 3.39337e-011 -5.62787e-009 1.85866e-010 -10.2786 0.731801 -0.0259123 3.3942e-011 -5.62787e-009 1.85854e-010 -2.22167 -0.733487 0.20892 -2.03217e-016 0 -3.88251e-019 2.60102 -8.26328 2.23437 -0.0245832 7.4205 0.0548604 -0.451247 4.00272 0.131182 2.03217e-016 0 3.88251e-019 4.475 -8.94733 -3.07356 0.00424554 8.62772 -0.0812346 0.443 2.47496 -0.0996432 
218.122 83.5006 29.0399 -7.21477 -11.3541 83.975 -0.732335 0.00981016 -0.0397682 -0.205725 0.016892 -0.0356036 1.66513e-013 13.125 5.22943e-014 -1.7295e-010 -26.25 -2.87838e-010 -0 0 0 -0 0 0 1.21768e-013 2.63781e-013 3.54011e-014 -6.5625 3.8732e-009 2.13965e-010 -2.00658e-011 6.76324e-011 1.51797e-013 -9.91575e-011 3.68916e-010 -1.37223e-011 -2.62695e-010 9.49649e-010 -2.9639e-011 -4.55159e-010 1.64094e-009 -5.1297e-011 -2.62691e-010 9.49639e-010 -2.96639e-011 7.73091 5.47488 0.417314 -2.62697e-010 9.49636e-010 -2.96449e-011 2.90554 0.965183 0.102902 -2.62684e-010 9.49637e-010 -2.96508e-011 10.2786 0.731801 0.0259123 -2.62698e-010 9.49649e-010 -2.9648e-011 2.22167 -0.733487 -0.20892 1.21691e-013 2.63772e-013 3.5188e-014 6.5625 3.8732e-009 -2.13964e-010 1.27842e-011 -5.93067e-010 8.94568e-012 2.04504e-011 -3.17572e-009 1.05816e-010 7.20382e-011 -8.18235e-009 2.49186e-010 1.24742e-010 -1.41333e-008 4.30318e-010 7.20335e-011 -8.18234e-009 2.49198e-010 -7.73091 5.47488 -0.417314 7.20387e-011 -8.18235e-009 2.49183e-010 -2.90554 0.965183 -0.102902 7.20321e-011 -8.18234e-009 2.4919e-010 -10.2786 0.731801 -0.0259123 7.20419e-011 -8.18233e-009 2.49177e-010 -2.22167 -0.733487 0.20892 -2.03217e-016 0 -3.88251e-019 3.8458 -10.8585 3.29907 -0.04418 11.2205 0.111315 -0.42291 4.25344 0.132029 2.03217e-016 0 3.88251e-019 6.71585 -11.1653 -4.54154 0.0132568 11.7459 -0.131053 0.408759 2.57829 -0.097104 
